<svg width="60" height="60" viewBox="0 0 60 60" fill="none" xmlns="http://www.w3.org/2000/svg">
<rect width="60" height="60" rx="8" fill="#EAEAEA"/>
<path d="M18.44 39V22.2H28.364V25.128H21.368V28.536H27.212V31.464H21.368V39H18.44ZM30.5919 39V22.2H36.7119C37.5999 22.2 38.3999 22.384 39.1119 22.752C39.8319 23.112 40.3999 23.632 40.8159 24.312C41.2399 24.984 41.4519 25.78 41.4519 26.7C41.4519 27.108 41.3919 27.52 41.2719 27.936C41.1519 28.352 40.9679 28.728 40.7199 29.064C40.4719 29.392 40.1519 29.636 39.7599 29.796C40.2799 29.924 40.7039 30.156 41.0319 30.492C41.3599 30.828 41.6159 31.224 41.7999 31.68C41.9839 32.128 42.1079 32.588 42.1719 33.06C42.2439 33.524 42.2799 33.956 42.2799 34.356C42.2799 35.244 42.0599 36.036 41.6199 36.732C41.1799 37.428 40.5879 37.98 39.8439 38.388C39.1079 38.796 38.2919 39 37.3959 39H30.5919ZM33.5199 36.492H37.0959C37.5759 36.492 38.0079 36.376 38.3919 36.144C38.7759 35.912 39.0839 35.592 39.3159 35.184C39.5479 34.776 39.6639 34.312 39.6639 33.792C39.6639 33.344 39.5479 32.92 39.3159 32.52C39.0839 32.12 38.7759 31.796 38.3919 31.548C38.0079 31.3 37.5759 31.176 37.0959 31.176H33.5199V36.492ZM33.5199 28.704H36.3759C36.9679 28.704 37.4719 28.52 37.8879 28.152C38.3119 27.784 38.5239 27.296 38.5239 26.688C38.5239 26.04 38.3119 25.552 37.8879 25.224C37.4719 24.888 36.9679 24.72 36.3759 24.72H33.5199V28.704Z" fill="#670FC4"/>
</svg>
